<svg width="300" height="1080" viewBox="0 0 300 1080" fill="none" xmlns="http://www.w3.org/2000/svg">
<rect width="300" height="1080" fill="#081159"/>
<mask id="path-1-inside-1_144_5864" fill="white">
<path d="M0 240H300V300H0V240Z"/>
</mask>
<path d="M0 240H300V300H0V240Z" fill="#2B347A"/>
<path d="M3 300V240H-3V300H3Z" fill="#F8F8F8" fill-opacity="0.972549" mask="url(#path-1-inside-1_144_5864)"/>
<path d="M90 266L84 260.74C83.45 260.248 82.7379 259.976 82 259.976C81.262 259.976 80.55 260.248 80 260.74L74 266C73.6823 266.284 73.4289 266.633 73.2564 267.022C73.084 267.412 72.9966 267.834 73 268.26V277C73 277.796 73.316 278.559 73.8787 279.121C74.4413 279.684 75.2043 280 76 280H88C88.7956 280 89.5587 279.684 90.1213 279.121C90.6839 278.559 91 277.796 91 277V268.25C91.0019 267.826 90.9138 267.406 90.7414 267.018C90.5691 266.63 90.3163 266.283 90 266ZM84 278H80V273C80 272.735 80.1053 272.48 80.2929 272.293C80.4804 272.105 80.7348 272 81 272H83C83.2652 272 83.5195 272.105 83.7071 272.293C83.8946 272.48 84 272.735 84 273V278ZM89 277C89 277.265 88.8946 277.52 88.7071 277.707C88.5195 277.895 88.2652 278 88 278H86V273C86 272.204 85.6839 271.441 85.1213 270.879C84.5587 270.316 83.7956 270 83 270H81C80.2043 270 79.4413 270.316 78.8787 270.879C78.316 271.441 78 272.204 78 273V278H76C75.7348 278 75.4804 277.895 75.2929 277.707C75.1053 277.52 75 277.265 75 277V268.25C75.0002 268.108 75.0306 267.968 75.0892 267.838C75.1478 267.709 75.2333 267.594 75.34 267.5L81.34 262.25C81.5225 262.09 81.7571 262.001 82 262.001C82.2429 262.001 82.4775 262.09 82.66 262.25L88.66 267.5C88.7666 267.594 88.8521 267.709 88.9108 267.838C88.9694 267.968 88.9998 268.108 89 268.25V277Z" fill="#F8F8F8" fill-opacity="0.972549"/>
<path d="M119.284 262.114H120.706V278.404H119.284V262.114ZM116.53 268.648H119.662V269.872H116.53V268.648ZM115.594 262.474H116.98V277.558H115.594V262.474ZM107.476 273.13H108.538C109.342 273.13 110.068 273.124 110.716 273.112C111.376 273.088 112 273.04 112.588 272.968C113.188 272.896 113.8 272.794 114.424 272.662L114.568 273.904C113.92 274.036 113.29 274.138 112.678 274.21C112.078 274.282 111.442 274.33 110.77 274.354C110.11 274.378 109.366 274.39 108.538 274.39H107.476V273.13ZM107.476 264.094H113.524V265.318H108.97V273.706H107.476V264.094ZM127.545 263.518H128.787V266.434C128.787 267.37 128.667 268.282 128.427 269.17C128.199 270.046 127.869 270.868 127.437 271.636C127.017 272.392 126.519 273.064 125.943 273.652C125.379 274.228 124.761 274.684 124.089 275.02L123.171 273.778C123.783 273.502 124.353 273.106 124.881 272.59C125.409 272.074 125.871 271.492 126.267 270.844C126.663 270.184 126.975 269.476 127.203 268.72C127.431 267.964 127.545 267.202 127.545 266.434V263.518ZM127.797 263.518H129.039V266.434C129.039 267.178 129.147 267.91 129.363 268.63C129.591 269.35 129.903 270.034 130.299 270.682C130.707 271.318 131.169 271.882 131.685 272.374C132.213 272.854 132.777 273.232 133.377 273.508L132.477 274.696C131.817 274.384 131.205 273.946 130.641 273.382C130.077 272.818 129.579 272.17 129.147 271.438C128.727 270.706 128.397 269.914 128.157 269.062C127.917 268.21 127.797 267.334 127.797 266.434V263.518ZM135.087 262.114H136.581V278.422H135.087V262.114ZM139.621 275.092H154.381V276.334H139.621V275.092ZM146.227 271.186H147.703V275.452H146.227V271.186ZM141.349 263.266H142.843V266.164H151.123V263.266H152.599V271.6H141.349V263.266ZM142.843 267.388V270.376H151.123V267.388H142.843ZM157.854 269.926H169.032V271.15H157.854V269.926ZM155.982 274.948H170.742V276.19H155.982V274.948ZM157.854 263.626H168.87V264.85H159.33V270.466H157.854V263.626Z" fill="#F8F8F8" fill-opacity="0.972549"/>
<path d="M82 320C80.0605 320.004 78.1639 320.571 76.5413 321.634C74.9186 322.696 73.6399 324.208 72.861 325.984C72.082 327.76 71.8364 329.724 72.1541 331.638C72.4717 333.551 73.3389 335.331 74.65 336.76C75.5865 337.775 76.723 338.585 77.988 339.139C79.253 339.693 80.619 339.979 82 339.979C83.3811 339.979 84.7471 339.693 86.0121 339.139C87.2771 338.585 88.4136 337.775 89.35 336.76C90.6612 335.331 91.5284 333.551 91.846 331.638C92.1637 329.724 91.9181 327.76 91.1391 325.984C90.3602 324.208 89.0815 322.696 87.4588 321.634C85.8362 320.571 83.9396 320.004 82 320ZM82 338C79.9285 337.997 77.939 337.19 76.45 335.75C76.9021 334.65 77.6711 333.708 78.6593 333.046C79.6475 332.383 80.8104 332.03 82 332.03C83.1897 332.03 84.3526 332.383 85.3408 333.046C86.329 333.708 87.098 334.65 87.55 335.75C86.0611 337.19 84.0716 337.997 82 338ZM80 328C80 327.604 80.1173 327.218 80.3371 326.889C80.5569 326.56 80.8692 326.304 81.2347 326.152C81.6001 326.001 82.0023 325.961 82.3902 326.038C82.7782 326.116 83.1346 326.306 83.4143 326.586C83.694 326.865 83.8844 327.222 83.9616 327.61C84.0388 327.998 83.9992 328.4 83.8478 328.765C83.6964 329.131 83.4401 329.443 83.1112 329.663C82.7823 329.883 82.3956 330 82 330C81.4696 330 80.9609 329.789 80.5858 329.414C80.2108 329.039 80 328.53 80 328ZM88.91 334C88.0166 332.472 86.6415 331.283 85 330.62C85.5092 330.043 85.841 329.331 85.9555 328.569C86.0701 327.808 85.9625 327.03 85.6458 326.328C85.3291 325.627 84.8166 325.032 84.17 324.614C83.5233 324.196 82.7698 323.974 82 323.974C81.2303 323.974 80.4768 324.196 79.8301 324.614C79.1835 325.032 78.671 325.627 78.3543 326.328C78.0376 327.03 77.93 327.808 78.0446 328.569C78.1591 329.331 78.4909 330.043 79 330.62C77.3586 331.283 75.9835 332.472 75.09 334C74.378 332.787 74.0018 331.406 74 330C74 327.878 74.8429 325.843 76.3432 324.343C77.8435 322.843 79.8783 322 82 322C84.1218 322 86.1566 322.843 87.6569 324.343C89.1572 325.843 90 327.878 90 330C89.9983 331.406 89.6221 332.787 88.91 334Z" fill="#F8F8F8" fill-opacity="0.972549"/>
<path d="M106.9 335.056H121.66V336.316H106.9V335.056ZM108.196 323.752H120.274V324.976H108.196V323.752ZM108.232 330.61H120.238V331.834H108.232V330.61ZM110.716 324.868H112.21V330.754H110.716V324.868ZM116.26 324.868H117.736V330.754H116.26V324.868ZM123.261 335.146H138.021V336.388H123.261V335.146ZM129.867 331.672H131.343V335.668H129.867V331.672ZM125.061 323.32H136.185V328.252H126.573V331.51H125.097V327.064H134.709V324.544H125.061V323.32ZM125.097 330.88H136.563V332.104H125.097V330.88ZM151.483 322.114H152.977V330.556H151.483V322.114ZM142.375 331.348H152.977V335.254H143.887V337.702H142.411V334.156H151.501V332.536H142.375V331.348ZM142.411 337.018H153.571V338.224H142.411V337.018ZM140.341 323.23H149.089V324.4H140.341V323.23ZM140.071 329.998L139.891 328.774C140.863 328.762 141.919 328.744 143.059 328.72C144.199 328.696 145.351 328.654 146.515 328.594C147.691 328.522 148.807 328.426 149.863 328.306L149.935 329.386C148.867 329.554 147.751 329.68 146.587 329.764C145.423 329.848 144.283 329.908 143.167 329.944C142.063 329.98 141.031 329.998 140.071 329.998ZM141.943 323.77H143.383V329.296H141.943V323.77ZM146.029 323.77H147.487V329.296H146.029V323.77ZM168.899 325.066H173.075V326.29H168.899V325.066ZM172.445 322.114H173.939V330.52H172.445V322.114ZM163.463 331.348H173.939V335.254H164.957V337.72H163.499V334.12H172.463V332.536H163.463V331.348ZM163.499 336.982H174.533V338.188H163.499V336.982ZM164.615 322.636H165.821V324.148C165.821 325.144 165.635 326.074 165.263 326.938C164.891 327.79 164.369 328.528 163.697 329.152C163.025 329.764 162.233 330.232 161.321 330.556L160.529 329.368C161.345 329.092 162.059 328.696 162.671 328.18C163.283 327.664 163.757 327.064 164.093 326.38C164.441 325.684 164.615 324.94 164.615 324.148V322.636ZM164.849 322.636H166.073V324.148C166.073 324.676 166.169 325.192 166.361 325.696C166.553 326.188 166.823 326.65 167.171 327.082C167.531 327.514 167.957 327.898 168.449 328.234C168.941 328.558 169.481 328.816 170.069 329.008L169.277 330.178C168.401 329.866 167.627 329.416 166.955 328.828C166.295 328.228 165.779 327.532 165.407 326.74C165.035 325.936 164.849 325.072 164.849 324.148V322.636ZM185.602 326.344H189.256V327.586H185.602V326.344ZM188.806 322.114H190.3V331.816H188.806V322.114ZM184.936 332.32C186.064 332.32 187.03 332.44 187.834 332.68C188.65 332.92 189.274 333.268 189.706 333.724C190.138 334.168 190.354 334.714 190.354 335.362C190.354 336.322 189.868 337.066 188.896 337.594C187.936 338.122 186.616 338.386 184.936 338.386C183.256 338.386 181.93 338.122 180.958 337.594C179.998 337.066 179.518 336.322 179.518 335.362C179.518 334.714 179.734 334.168 180.166 333.724C180.61 333.268 181.234 332.92 182.038 332.68C182.854 332.44 183.82 332.32 184.936 332.32ZM184.936 333.49C184.12 333.49 183.418 333.562 182.83 333.706C182.242 333.85 181.786 334.06 181.462 334.336C181.15 334.612 180.994 334.954 180.994 335.362C180.994 335.746 181.15 336.076 181.462 336.352C181.786 336.628 182.242 336.844 182.83 337C183.418 337.144 184.12 337.216 184.936 337.216C185.764 337.216 186.466 337.144 187.042 337C187.63 336.844 188.08 336.628 188.392 336.352C188.716 336.076 188.878 335.746 188.878 335.362C188.878 334.954 188.716 334.612 188.392 334.336C188.08 334.06 187.63 333.85 187.042 333.706C186.466 333.562 185.764 333.49 184.936 333.49ZM181.048 323.77H182.272V325.084C182.272 326.08 182.08 327.016 181.696 327.892C181.324 328.756 180.796 329.518 180.112 330.178C179.428 330.826 178.636 331.324 177.736 331.672L176.962 330.484C177.574 330.268 178.126 329.974 178.618 329.602C179.122 329.23 179.554 328.804 179.914 328.324C180.286 327.844 180.568 327.328 180.76 326.776C180.952 326.224 181.048 325.66 181.048 325.084V323.77ZM181.336 323.77H182.56V325.066C182.56 325.762 182.722 326.44 183.046 327.1C183.37 327.76 183.832 328.342 184.432 328.846C185.032 329.35 185.722 329.746 186.502 330.034L185.746 331.222C184.858 330.898 184.084 330.43 183.424 329.818C182.764 329.194 182.248 328.474 181.876 327.658C181.516 326.842 181.336 325.978 181.336 325.066V323.77ZM177.43 323.302H186.124V324.526H177.43V323.302Z" fill="#F8F8F8" fill-opacity="0.972549"/>
<path d="M82 392C81.8022 392 81.6089 392.059 81.4444 392.169C81.28 392.278 81.1518 392.435 81.0761 392.617C81.0004 392.8 80.9806 393.001 81.0192 393.195C81.0578 393.389 81.153 393.567 81.2929 393.707C81.4327 393.847 81.6109 393.942 81.8049 393.981C81.9989 394.019 82.1999 394 82.3827 393.924C82.5654 393.848 82.7216 393.72 82.8315 393.556C82.9413 393.391 83 393.198 83 393C83 392.735 82.8946 392.48 82.7071 392.293C82.5196 392.105 82.2652 392 82 392ZM82 380C80.6868 380 79.3864 380.259 78.1732 380.761C76.9599 381.264 75.8575 382 74.9289 382.929C73.0536 384.804 72 387.348 72 390C71.9912 392.309 72.7908 394.549 74.26 396.33L72.26 398.33C72.1212 398.471 72.0272 398.649 71.9899 398.843C71.9525 399.037 71.9734 399.238 72.05 399.42C72.133 399.6 72.2677 399.751 72.4368 399.854C72.606 399.958 72.802 400.008 73 400H82C84.6522 400 87.1957 398.946 89.0711 397.071C90.9464 395.196 92 392.652 92 390C92 387.348 90.9464 384.804 89.0711 382.929C87.1957 381.054 84.6522 380 82 380ZM82 398H75.41L76.34 397.07C76.4345 396.977 76.5096 396.867 76.5611 396.745C76.6126 396.623 76.6394 396.492 76.64 396.36C76.6362 396.096 76.5284 395.845 76.34 395.66C75.0306 394.352 74.2152 392.631 74.0327 390.789C73.8502 388.947 74.3119 387.099 75.3392 385.56C76.3665 384.02 77.8958 382.884 79.6665 382.346C81.4372 381.808 83.3398 381.9 85.0502 382.607C86.7606 383.314 88.1728 384.592 89.0464 386.224C89.92 387.856 90.2009 389.74 89.8411 391.555C89.4814 393.37 88.5033 395.005 87.0735 396.18C85.6438 397.355 83.8508 397.999 82 398ZM82 386C81.7348 386 81.4804 386.105 81.2929 386.293C81.1053 386.48 81 386.735 81 387V390C81 390.265 81.1053 390.52 81.2929 390.707C81.4804 390.895 81.7348 391 82 391C82.2652 391 82.5196 390.895 82.7071 390.707C82.8946 390.52 83 390.265 83 390V387C83 386.735 82.8946 386.48 82.7071 386.293C82.5196 386.105 82.2652 386 82 386Z" fill="#F8F8F8" fill-opacity="0.972549"/>
<path d="M118.042 382.114H119.536V390.394H118.042V382.114ZM118.87 385.624H121.93V386.866H118.87V385.624ZM109.186 391.168H119.536V395.164H110.698V397.612H109.24V394.048H118.06V392.356H109.186V391.168ZM109.24 396.982H120.112V398.188H109.24V396.982ZM111.4 382.708C112.216 382.708 112.936 382.858 113.56 383.158C114.196 383.458 114.694 383.884 115.054 384.436C115.414 384.976 115.594 385.606 115.594 386.326C115.594 387.034 115.414 387.664 115.054 388.216C114.694 388.756 114.196 389.182 113.56 389.494C112.936 389.794 112.216 389.944 111.4 389.944C110.596 389.944 109.876 389.794 109.24 389.494C108.604 389.182 108.1 388.756 107.728 388.216C107.368 387.664 107.188 387.028 107.188 386.308C107.188 385.6 107.368 384.976 107.728 384.436C108.1 383.884 108.604 383.458 109.24 383.158C109.876 382.858 110.596 382.708 111.4 382.708ZM111.4 383.932C110.872 383.932 110.398 384.034 109.978 384.238C109.57 384.442 109.246 384.724 109.006 385.084C108.766 385.432 108.646 385.846 108.646 386.326C108.646 386.794 108.766 387.208 109.006 387.568C109.246 387.928 109.57 388.216 109.978 388.432C110.398 388.636 110.872 388.738 111.4 388.738C111.928 388.738 112.396 388.636 112.804 388.432C113.224 388.216 113.554 387.928 113.794 387.568C114.034 387.208 114.154 386.794 114.154 386.326C114.154 385.846 114.034 385.432 113.794 385.084C113.554 384.724 113.224 384.442 112.804 384.238C112.396 384.034 111.928 383.932 111.4 383.932ZM135.105 382.132H136.599V391.78H135.105V382.132ZM124.107 389.764H125.421C126.405 389.764 127.317 389.752 128.157 389.728C129.009 389.704 129.837 389.656 130.641 389.584C131.445 389.5 132.279 389.392 133.143 389.26L133.323 390.484C132.423 390.628 131.559 390.742 130.731 390.826C129.915 390.898 129.075 390.946 128.211 390.97C127.359 390.994 126.429 391.006 125.421 391.006H124.107V389.764ZM124.071 383.104H131.451V387.55H125.565V390.52H124.107V386.38H129.993V384.31H124.071V383.104ZM126.087 392.662H136.599V398.188H126.087V392.662ZM135.141 393.868H127.545V396.964H135.141V393.868ZM152.539 385.066H156.715V386.29H152.539V385.066ZM156.085 382.114H157.579V390.52H156.085V382.114ZM147.103 391.348H157.579V395.254H148.597V397.72H147.139V394.12H156.103V392.536H147.103V391.348ZM147.139 396.982H158.173V398.188H147.139V396.982ZM148.255 382.636H149.461V384.148C149.461 385.144 149.275 386.074 148.903 386.938C148.531 387.79 148.009 388.528 147.337 389.152C146.665 389.764 145.873 390.232 144.961 390.556L144.169 389.368C144.985 389.092 145.699 388.696 146.311 388.18C146.923 387.664 147.397 387.064 147.733 386.38C148.081 385.684 148.255 384.94 148.255 384.148V382.636ZM148.489 382.636H149.713V384.148C149.713 384.676 149.809 385.192 150.001 385.696C150.193 386.188 150.463 386.65 150.811 387.082C151.171 387.514 151.597 387.898 152.089 388.234C152.581 388.558 153.121 388.816 153.709 389.008L152.917 390.178C152.041 389.866 151.267 389.416 150.595 388.828C149.935 388.228 149.419 387.532 149.047 386.74C148.675 385.936 148.489 385.072 148.489 384.148V382.636ZM169.241 386.344H172.895V387.586H169.241V386.344ZM172.445 382.114H173.939V391.816H172.445V382.114ZM168.575 392.32C169.703 392.32 170.669 392.44 171.473 392.68C172.289 392.92 172.913 393.268 173.345 393.724C173.777 394.168 173.993 394.714 173.993 395.362C173.993 396.322 173.507 397.066 172.535 397.594C171.575 398.122 170.255 398.386 168.575 398.386C166.895 398.386 165.569 398.122 164.597 397.594C163.637 397.066 163.157 396.322 163.157 395.362C163.157 394.714 163.373 394.168 163.805 393.724C164.249 393.268 164.873 392.92 165.677 392.68C166.493 392.44 167.459 392.32 168.575 392.32ZM168.575 393.49C167.759 393.49 167.057 393.562 166.469 393.706C165.881 393.85 165.425 394.06 165.101 394.336C164.789 394.612 164.633 394.954 164.633 395.362C164.633 395.746 164.789 396.076 165.101 396.352C165.425 396.628 165.881 396.844 166.469 397C167.057 397.144 167.759 397.216 168.575 397.216C169.403 397.216 170.105 397.144 170.681 397C171.269 396.844 171.719 396.628 172.031 396.352C172.355 396.076 172.517 395.746 172.517 395.362C172.517 394.954 172.355 394.612 172.031 394.336C171.719 394.06 171.269 393.85 170.681 393.706C170.105 393.562 169.403 393.49 168.575 393.49ZM164.687 383.77H165.911V385.084C165.911 386.08 165.719 387.016 165.335 387.892C164.963 388.756 164.435 389.518 163.751 390.178C163.067 390.826 162.275 391.324 161.375 391.672L160.601 390.484C161.213 390.268 161.765 389.974 162.257 389.602C162.761 389.23 163.193 388.804 163.553 388.324C163.925 387.844 164.207 387.328 164.399 386.776C164.591 386.224 164.687 385.66 164.687 385.084V383.77ZM164.975 383.77H166.199V385.066C166.199 385.762 166.361 386.44 166.685 387.1C167.009 387.76 167.471 388.342 168.071 388.846C168.671 389.35 169.361 389.746 170.141 390.034L169.385 391.222C168.497 390.898 167.723 390.43 167.063 389.818C166.403 389.194 165.887 388.474 165.515 387.658C165.155 386.842 164.975 385.978 164.975 385.066V383.77ZM161.069 383.302H169.763V384.526H161.069V383.302Z" fill="#F8F8F8" fill-opacity="0.972549"/>
<path d="M77 454C77.3978 454 77.7794 453.842 78.0607 453.561C78.342 453.279 78.5 452.898 78.5 452.5C78.5049 452.45 78.5049 452.4 78.5 452.35L81.29 449.56H81.52H81.75L83.36 451.17C83.36 451.17 83.36 451.22 83.36 451.25C83.36 451.648 83.518 452.029 83.7993 452.311C84.0806 452.592 84.4622 452.75 84.86 452.75C85.2578 452.75 85.6394 452.592 85.9207 452.311C86.202 452.029 86.36 451.648 86.36 451.25V451.17L90 447.5C90.2967 447.5 90.5867 447.412 90.8334 447.247C91.08 447.082 91.2723 446.848 91.3858 446.574C91.4993 446.3 91.5291 445.998 91.4712 445.707C91.4133 445.416 91.2704 445.149 91.0607 444.939C90.8509 444.73 90.5836 444.587 90.2926 444.529C90.0017 444.471 89.7001 444.501 89.426 444.614C89.1519 444.728 88.9176 444.92 88.7528 445.167C88.588 445.413 88.5 445.703 88.5 446C88.4951 446.05 88.4951 446.1 88.5 446.15L84.89 449.76H84.73L83 448C83 447.602 82.842 447.221 82.5607 446.939C82.2794 446.658 81.8978 446.5 81.5 446.5C81.1022 446.5 80.7206 446.658 80.4393 446.939C80.158 447.221 80 447.602 80 448L77 451C76.6022 451 76.2206 451.158 75.9393 451.439C75.658 451.721 75.5 452.102 75.5 452.5C75.5 452.898 75.658 453.279 75.9393 453.561C76.2206 453.842 76.6022 454 77 454ZM90.5 458H73.5V441C73.5 440.735 73.3946 440.48 73.2071 440.293C73.0196 440.105 72.7652 440 72.5 440C72.2348 440 71.9804 440.105 71.7929 440.293C71.6054 440.48 71.5 440.735 71.5 441V459C71.5 459.265 71.6054 459.52 71.7929 459.707C71.9804 459.895 72.2348 460 72.5 460H90.5C90.7652 460 91.0196 459.895 91.2071 459.707C91.3946 459.52 91.5 459.265 91.5 459C91.5 458.735 91.3946 458.48 91.2071 458.293C91.0196 458.105 90.7652 458 90.5 458Z" fill="#F8F8F8" fill-opacity="0.972549"/>
<path d="M111.202 444.454H112.426V447.082C112.426 447.946 112.306 448.798 112.066 449.638C111.826 450.466 111.49 451.252 111.058 451.996C110.638 452.728 110.146 453.376 109.582 453.94C109.018 454.504 108.412 454.948 107.764 455.272L106.9 454.084C107.488 453.796 108.04 453.406 108.556 452.914C109.084 452.422 109.546 451.858 109.942 451.222C110.338 450.586 110.644 449.914 110.86 449.206C111.088 448.498 111.202 447.79 111.202 447.082V444.454ZM111.508 444.454H112.714V447.082C112.714 447.766 112.822 448.45 113.038 449.134C113.266 449.806 113.578 450.442 113.974 451.042C114.382 451.63 114.844 452.152 115.36 452.608C115.888 453.064 116.452 453.424 117.052 453.688L116.224 454.876C115.564 454.564 114.946 454.144 114.37 453.616C113.794 453.088 113.29 452.482 112.858 451.798C112.438 451.102 112.108 450.358 111.868 449.566C111.628 448.762 111.508 447.934 111.508 447.082V444.454ZM107.422 443.788H116.512V445.03H107.422V443.788ZM118.726 442.114H120.22V458.404H118.726V442.114ZM127.347 450.934H128.841V455.578H127.347V450.934ZM132.351 450.952H133.845V455.596H132.351V450.952ZM123.261 455.182H138.021V456.424H123.261V455.182ZM124.557 443.626H136.635V444.85H124.557V443.626ZM124.593 450.124H136.599V451.348H124.593V450.124ZM127.077 444.616H128.571V450.376H127.077V444.616ZM132.621 444.616H134.097V450.376H132.621V444.616ZM155.203 442.114H156.697V458.386H155.203V442.114ZM156.301 448.72H159.289V449.962H156.301V448.72ZM151.045 443.86H152.503C152.503 445.408 152.251 446.89 151.747 448.306C151.243 449.71 150.451 451.012 149.371 452.212C148.291 453.4 146.869 454.432 145.105 455.308L144.277 454.156C145.789 453.4 147.043 452.518 148.039 451.51C149.047 450.49 149.797 449.362 150.289 448.126C150.793 446.878 151.045 445.534 151.045 444.094V443.86ZM145.033 443.86H151.801V445.102H145.033V443.86ZM172.373 442.114H173.867V458.422H172.373V442.114ZM165.281 443.374C166.085 443.374 166.793 443.608 167.405 444.076C168.029 444.532 168.515 445.186 168.863 446.038C169.223 446.89 169.403 447.892 169.403 449.044C169.403 450.196 169.223 451.198 168.863 452.05C168.515 452.902 168.029 453.562 167.405 454.03C166.793 454.498 166.085 454.732 165.281 454.732C164.477 454.732 163.763 454.498 163.139 454.03C162.515 453.562 162.023 452.902 161.663 452.05C161.315 451.198 161.141 450.196 161.141 449.044C161.141 447.892 161.315 446.89 161.663 446.038C162.023 445.186 162.515 444.532 163.139 444.076C163.763 443.608 164.477 443.374 165.281 443.374ZM165.281 444.706C164.741 444.706 164.267 444.886 163.859 445.246C163.463 445.594 163.151 446.098 162.923 446.758C162.695 447.406 162.581 448.168 162.581 449.044C162.581 449.92 162.695 450.688 162.923 451.348C163.151 451.996 163.463 452.5 163.859 452.86C164.267 453.22 164.741 453.4 165.281 453.4C165.809 453.4 166.271 453.22 166.667 452.86C167.075 452.5 167.393 451.996 167.621 451.348C167.849 450.688 167.963 449.92 167.963 449.044C167.963 448.168 167.849 447.406 167.621 446.758C167.393 446.098 167.075 445.594 166.667 445.246C166.271 444.886 165.809 444.706 165.281 444.706ZM178.78 449.926H189.958V451.15H178.78V449.926ZM176.908 454.948H191.668V456.19H176.908V454.948ZM178.78 443.626H189.796V444.85H180.256V450.466H178.78V443.626Z" fill="#F8F8F8" fill-opacity="0.972549"/>
<g clip-path="url(#clip0_144_5864)">
<rect x="70" y="138" width="70" height="70" rx="35" fill="#B4B5D1"/>
<ellipse cx="105.5" cy="197" rx="15.5" ry="21" fill="#DBDBE9"/>
<circle cx="106" cy="161" r="10" fill="#DBDBE9"/>
</g>
<rect x="70.5" y="138.5" width="69" height="69" rx="34.5" stroke="#E7E7F0"/>
<path d="M72 992.67C72 993.2 72.2107 993.709 72.5858 994.084C72.9609 994.459 73.4696 994.67 74 994.67C74.5304 994.67 75.0391 994.459 75.4142 994.084C75.7893 993.709 76 993.2 76 992.67V990.67H74C73.4696 990.67 72.9609 990.881 72.5858 991.256C72.2107 991.631 72 992.14 72 992.67ZM84.64 989.33C85.1704 989.33 85.6791 989.119 86.0542 988.744C86.4293 988.369 86.64 987.86 86.64 987.33V982C86.64 981.47 86.4293 980.961 86.0542 980.586C85.6791 980.211 85.1704 980 84.64 980C84.1096 980 83.6009 980.211 83.2258 980.586C82.8507 980.961 82.64 981.47 82.64 982V987.33C82.64 987.594 82.6924 987.856 82.7941 988.1C82.8959 988.344 83.045 988.565 83.2328 988.751C83.4207 988.937 83.6435 989.084 83.8885 989.184C84.1335 989.283 84.3957 989.333 84.66 989.33H84.64ZM91.96 987.33C91.96 986.8 91.7493 986.291 91.3742 985.916C90.9991 985.541 90.4904 985.33 89.96 985.33C89.4296 985.33 88.9209 985.541 88.5458 985.916C88.1707 986.291 87.96 986.8 87.96 987.33V989.33H89.96C90.226 989.335 90.4904 989.288 90.7377 989.189C90.9849 989.091 91.2102 988.945 91.4001 988.759C91.5901 988.572 91.741 988.35 91.844 988.105C91.947 987.859 92.0001 987.596 92 987.33H91.96ZM79.34 990.67C78.8096 990.67 78.3009 990.881 77.9258 991.256C77.5507 991.631 77.34 992.14 77.34 992.67V998C77.34 998.53 77.5507 999.039 77.9258 999.414C78.3009 999.789 78.8096 1000 79.34 1000C79.8704 1000 80.3791 999.789 80.7542 999.414C81.1293 999.039 81.34 998.53 81.34 998V992.67C81.34 992.14 81.1293 991.631 80.7542 991.256C80.3791 990.881 79.8704 990.67 79.34 990.67ZM84.66 996H82.66V998C82.66 998.396 82.7773 998.782 82.9971 999.111C83.2168 999.44 83.5292 999.696 83.8946 999.848C84.2601 999.999 84.6622 1000.04 85.0502 999.962C85.4381 999.884 85.7945 999.694 86.0742 999.414C86.3539 999.135 86.5444 998.778 86.6216 998.39C86.6987 998.002 86.6591 997.6 86.5078 997.235C86.3564 996.869 86.1 996.557 85.7711 996.337C85.4422 996.117 85.0556 996 84.66 996ZM90 990.67H84.66C84.1296 990.67 83.6209 990.881 83.2458 991.256C82.8707 991.631 82.66 992.14 82.66 992.67C82.66 993.2 82.8707 993.709 83.2458 994.084C83.6209 994.459 84.1296 994.67 84.66 994.67H90C90.5304 994.67 91.0391 994.459 91.4142 994.084C91.7893 993.709 92 993.2 92 992.67C92 992.14 91.7893 991.631 91.4142 991.256C91.0391 990.881 90.5304 990.67 90 990.67ZM79.34 985.33H74C73.4696 985.33 72.9609 985.541 72.5858 985.916C72.2107 986.291 72 986.8 72 987.33C72 987.86 72.2107 988.369 72.5858 988.744C72.9609 989.119 73.4696 989.33 74 989.33H79.34C79.8704 989.33 80.3791 989.119 80.7542 988.744C81.1293 988.369 81.34 987.86 81.34 987.33C81.34 986.8 81.1293 986.291 80.7542 985.916C80.3791 985.541 79.8704 985.33 79.34 985.33ZM79.34 980C78.8096 980 78.3009 980.211 77.9258 980.586C77.5507 980.961 77.34 981.47 77.34 982C77.34 982.53 77.5507 983.039 77.9258 983.414C78.3009 983.789 78.8096 984 79.34 984H81.34V982C81.34 981.47 81.1293 980.961 80.7542 980.586C80.3791 980.211 79.8704 980 79.34 980Z" fill="#C6C6C6"/>
<path d="M113.488 982.24H114.766V982.834C114.766 983.386 114.646 983.902 114.406 984.382C114.166 984.862 113.842 985.3 113.434 985.696C113.026 986.092 112.54 986.44 111.976 986.74C111.424 987.04 110.83 987.292 110.194 987.496C109.558 987.7 108.898 987.844 108.214 987.928L107.71 986.794C108.298 986.722 108.874 986.608 109.438 986.452C110.002 986.284 110.524 986.08 111.004 985.84C111.496 985.588 111.928 985.306 112.3 984.994C112.684 984.682 112.978 984.346 113.182 983.986C113.386 983.614 113.488 983.23 113.488 982.834V982.24ZM113.74 982.24H115.018V982.834C115.018 983.23 115.12 983.614 115.324 983.986C115.528 984.346 115.816 984.682 116.188 984.994C116.56 985.306 116.992 985.588 117.484 985.84C117.976 986.08 118.504 986.284 119.068 986.452C119.632 986.608 120.208 986.722 120.796 986.794L120.274 987.928C119.602 987.844 118.948 987.7 118.312 987.496C117.676 987.292 117.082 987.04 116.53 986.74C115.978 986.44 115.492 986.092 115.072 985.696C114.652 985.3 114.322 984.862 114.082 984.382C113.854 983.902 113.74 983.386 113.74 982.834V982.24ZM106.9 988.954H121.606V990.178H106.9V988.954ZM108.682 991.654H119.716V995.398H110.176V997.324H108.718V994.3H118.258V992.806H108.682V991.654ZM108.718 997.054H120.202V998.224H108.718V997.054ZM135.555 982.132H136.977V992.302H135.555V982.132ZM132.945 986.47H136.005V987.694H132.945V986.47ZM131.955 982.438H133.359V992.158H131.955V982.438ZM126.069 993.112H136.977V998.404H135.501V994.336H126.069V993.112ZM123.999 990.25H125.061C125.829 990.25 126.537 990.238 127.185 990.214C127.845 990.19 128.487 990.142 129.111 990.07C129.735 989.998 130.371 989.896 131.019 989.764L131.181 990.988C130.497 991.108 129.837 991.204 129.201 991.276C128.565 991.348 127.911 991.396 127.239 991.42C126.567 991.444 125.841 991.456 125.061 991.456H123.999V990.25ZM123.963 983.302H130.083V987.874H125.439V991.024H123.999V986.74H128.643V984.508H123.963V983.302ZM155.203 982.114H156.697V998.404H155.203V982.114ZM156.355 988.522H159.361V989.8H156.355V988.522ZM144.835 983.5H146.311V987.784H150.937V983.5H152.413V994.498H144.835V983.5ZM146.311 988.972V993.256H150.937V988.972H146.311ZM160.547 995.146H175.307V996.388H160.547V995.146ZM167.153 991.672H168.629V995.668H167.153V991.672ZM162.347 983.32H173.471V988.252H163.859V991.51H162.383V987.064H171.995V984.544H162.347V983.32ZM162.383 990.88H173.849V992.104H162.383V990.88ZM187.924 982.114H189.418V998.386H187.924V982.114ZM189.022 988.72H192.01V989.962H189.022V988.72ZM183.766 983.86H185.224C185.224 985.408 184.972 986.89 184.468 988.306C183.964 989.71 183.172 991.012 182.092 992.212C181.012 993.4 179.59 994.432 177.826 995.308L176.998 994.156C178.51 993.4 179.764 992.518 180.76 991.51C181.768 990.49 182.518 989.362 183.01 988.126C183.514 986.878 183.766 985.534 183.766 984.094V983.86ZM177.754 983.86H184.522V985.102H177.754V983.86ZM205.131 982.114H206.625V998.404H205.131V982.114ZM200.361 983.878H201.837C201.837 985.054 201.693 986.188 201.405 987.28C201.129 988.372 200.691 989.41 200.091 990.394C199.491 991.366 198.711 992.272 197.751 993.112C196.791 993.952 195.627 994.702 194.259 995.362L193.467 994.156C195.039 993.4 196.335 992.518 197.355 991.51C198.375 990.502 199.131 989.38 199.623 988.144C200.115 986.896 200.361 985.552 200.361 984.112V983.878ZM194.223 983.878H200.991V985.084H194.223V983.878Z" fill="#C6C6C6"/>
<path d="M73.6924 1042.62C73.4475 1042.62 73.2128 1042.71 73.0397 1042.89C72.8665 1043.06 72.7693 1043.29 72.7693 1043.54V1056.46C72.7693 1056.71 72.8665 1056.94 73.0397 1057.11C73.2128 1057.29 73.4475 1057.38 73.6924 1057.38C73.9372 1057.38 74.172 1057.29 74.3451 1057.11C74.5182 1056.94 74.6154 1056.71 74.6154 1056.46V1043.54C74.6154 1043.29 74.5182 1043.06 74.3451 1042.89C74.172 1042.71 73.9372 1042.62 73.6924 1042.62ZM91.157 1049.65C91.113 1049.54 91.0472 1049.43 90.9631 1049.34L87.2708 1045.65C87.1848 1045.57 87.0826 1045.5 86.9701 1045.45C86.8577 1045.4 86.7372 1045.38 86.6154 1045.38C86.3696 1045.38 86.1339 1045.48 85.9601 1045.65C85.7862 1045.83 85.6886 1046.06 85.6886 1046.31C85.6886 1046.55 85.7862 1046.79 85.9601 1046.96L88.0831 1049.08H77.3847C77.1399 1049.08 76.9051 1049.17 76.732 1049.35C76.5588 1049.52 76.4616 1049.76 76.4616 1050C76.4616 1050.24 76.5588 1050.48 76.732 1050.65C76.9051 1050.83 77.1399 1050.92 77.3847 1050.92H88.0831L85.9601 1053.04C85.8735 1053.12 85.8049 1053.22 85.758 1053.34C85.7111 1053.45 85.687 1053.57 85.687 1053.69C85.687 1053.81 85.7111 1053.93 85.758 1054.05C85.8049 1054.16 85.8735 1054.26 85.9601 1054.35C86.0459 1054.43 86.148 1054.5 86.2604 1054.55C86.3729 1054.6 86.4936 1054.62 86.6154 1054.62C86.7373 1054.62 86.858 1054.6 86.9704 1054.55C87.0829 1054.5 87.185 1054.43 87.2708 1054.35L90.9631 1050.66C91.0472 1050.57 91.113 1050.46 91.157 1050.35C91.2493 1050.13 91.2493 1049.87 91.157 1049.65Z" fill="#C6C6C6"/>
<path d="M106.9 1055.15H121.66V1056.39H106.9V1055.15ZM113.506 1051.67H114.982V1055.67H113.506V1051.67ZM108.7 1043.32H119.824V1048.25H110.212V1051.51H108.736V1047.06H118.348V1044.54H108.7V1043.32ZM108.736 1050.88H120.202V1052.1H108.736V1050.88ZM124.863 1043.84H135.339V1045.07H124.863V1043.84ZM123.261 1054.79H137.967V1056.03H123.261V1054.79ZM134.529 1043.84H136.005V1045.48C136.005 1046.16 135.993 1046.9 135.969 1047.68C135.957 1048.44 135.909 1049.3 135.825 1050.23C135.741 1051.17 135.597 1052.22 135.393 1053.4L133.881 1053.24C134.097 1052.13 134.247 1051.12 134.331 1050.2C134.427 1049.27 134.481 1048.42 134.493 1047.64C134.517 1046.86 134.529 1046.14 134.529 1045.48V1043.84ZM143.941 1043.37C144.745 1043.37 145.453 1043.61 146.065 1044.08C146.677 1044.53 147.157 1045.19 147.505 1046.04C147.853 1046.89 148.027 1047.89 148.027 1049.04C148.027 1050.2 147.853 1051.2 147.505 1052.05C147.157 1052.9 146.677 1053.56 146.065 1054.03C145.453 1054.5 144.745 1054.73 143.941 1054.73C143.149 1054.73 142.441 1054.5 141.817 1054.03C141.205 1053.56 140.725 1052.9 140.377 1052.05C140.029 1051.2 139.855 1050.2 139.855 1049.04C139.855 1047.89 140.029 1046.89 140.377 1046.04C140.725 1045.19 141.205 1044.53 141.817 1044.08C142.441 1043.61 143.149 1043.37 143.941 1043.37ZM143.941 1044.71C143.425 1044.71 142.963 1044.89 142.555 1045.25C142.159 1045.59 141.847 1046.1 141.619 1046.76C141.391 1047.41 141.277 1048.17 141.277 1049.04C141.277 1049.92 141.391 1050.69 141.619 1051.35C141.847 1052 142.159 1052.5 142.555 1052.86C142.963 1053.22 143.431 1053.4 143.959 1053.4C144.475 1053.4 144.931 1053.22 145.327 1052.86C145.735 1052.5 146.047 1052 146.263 1051.35C146.491 1050.69 146.605 1049.92 146.605 1049.04C146.605 1048.17 146.491 1047.41 146.263 1046.76C146.047 1046.1 145.735 1045.59 145.327 1045.25C144.931 1044.89 144.469 1044.71 143.941 1044.71ZM150.637 1042.11H152.131V1058.4H150.637V1042.11ZM151.789 1048.61H154.795V1049.87H151.789V1048.61ZM155.982 1049.55H170.724V1050.79H155.982V1049.55ZM162.57 1050.09H164.046V1052.57H162.57V1050.09ZM162.534 1053.33H163.812V1053.83C163.812 1054.44 163.65 1055.01 163.326 1055.52C163.002 1056.03 162.546 1056.48 161.958 1056.87C161.37 1057.26 160.698 1057.57 159.942 1057.81C159.186 1058.06 158.382 1058.24 157.53 1058.33L157.044 1057.18C157.788 1057.11 158.49 1056.98 159.15 1056.78C159.81 1056.59 160.392 1056.35 160.896 1056.05C161.4 1055.75 161.796 1055.41 162.084 1055.04C162.384 1054.65 162.534 1054.25 162.534 1053.83V1053.33ZM162.804 1053.33H164.064V1053.83C164.064 1054.28 164.208 1054.68 164.496 1055.06C164.796 1055.43 165.198 1055.76 165.702 1056.06C166.218 1056.35 166.806 1056.59 167.466 1056.78C168.126 1056.98 168.822 1057.11 169.554 1057.18L169.086 1058.33C168.234 1058.24 167.43 1058.06 166.674 1057.81C165.918 1057.57 165.246 1057.26 164.658 1056.89C164.082 1056.51 163.626 1056.06 163.29 1055.54C162.966 1055.03 162.804 1054.46 162.804 1053.83V1053.33ZM163.326 1042.37C164.502 1042.37 165.516 1042.48 166.368 1042.71C167.232 1042.94 167.892 1043.28 168.348 1043.73C168.816 1044.18 169.05 1044.72 169.05 1045.35C169.05 1045.98 168.816 1046.51 168.348 1046.96C167.892 1047.4 167.232 1047.74 166.368 1047.98C165.516 1048.22 164.502 1048.34 163.326 1048.34C162.15 1048.34 161.13 1048.22 160.266 1047.98C159.414 1047.74 158.754 1047.4 158.286 1046.96C157.83 1046.51 157.602 1045.98 157.602 1045.35C157.602 1044.72 157.83 1044.18 158.286 1043.73C158.754 1043.28 159.414 1042.94 160.266 1042.71C161.13 1042.48 162.15 1042.37 163.326 1042.37ZM163.326 1043.5C162.462 1043.5 161.718 1043.58 161.094 1043.73C160.47 1043.88 159.984 1044.09 159.636 1044.36C159.3 1044.63 159.132 1044.96 159.132 1045.35C159.132 1045.74 159.3 1046.07 159.636 1046.34C159.984 1046.61 160.47 1046.81 161.094 1046.96C161.718 1047.1 162.462 1047.17 163.326 1047.17C164.202 1047.17 164.952 1047.1 165.576 1046.96C166.2 1046.81 166.68 1046.61 167.016 1046.34C167.352 1046.07 167.52 1045.74 167.52 1045.35C167.52 1044.96 167.352 1044.63 167.016 1044.36C166.68 1044.09 166.2 1043.88 165.576 1043.73C164.952 1043.58 164.202 1043.5 163.326 1043.5Z" fill="#C6C6C6"/>
<defs>
<clipPath id="clip0_144_5864">
<rect x="70" y="138" width="70" height="70" rx="35" fill="white"/>
</clipPath>
</defs>
</svg>
