<svg width="12" height="13" viewBox="0 0 12 13" fill="none" xmlns="http://www.w3.org/2000/svg">
<path d="M6.35 6.75002C6.15 6.55002 5.85 6.55002 5.65 6.75002L4.15 8.25002C3.95 8.45003 3.95 8.75002 4.15 8.95002C4.35 9.15002 4.65 9.15002 4.85 8.95002L6 7.80003L7.15 8.95002C7.25 9.05002 7.35 9.10003 7.5 9.10003C7.65 9.10003 7.75 9.05002 7.85 8.95002C8.05 8.75002 8.05 8.45003 7.85 8.25002L6.35 6.75002ZM4.85 6.25002L6 5.10002L7.15 6.25002C7.25 6.35002 7.35 6.40002 7.5 6.40002C7.65 6.40002 7.75 6.35002 7.85 6.25002C8.05 6.05002 8.05 5.75002 7.85 5.55002L6.35 4.05002C6.15 3.85002 5.85 3.85002 5.65 4.05002L4.15 5.55002C3.95 5.75002 3.95 6.05002 4.15 6.25002C4.35 6.40002 4.65 6.40002 4.85 6.25002Z" fill="#F8F8F8" fill-opacity="0.972549"/>
</svg>
