<svg width="12" height="12" viewBox="0 0 12 12" fill="none" xmlns="http://www.w3.org/2000/svg">
<path d="M6.35 6.2499C6.15 6.0499 5.85 6.0499 5.65 6.2499L4.15 7.7499C3.95 7.9499 3.95 8.2499 4.15 8.4499C4.35 8.6499 4.65 8.6499 4.85 8.4499L6 7.2999L7.15 8.4499C7.25 8.5499 7.35 8.5999 7.5 8.5999C7.65 8.5999 7.75 8.5499 7.85 8.4499C8.05 8.2499 8.05 7.9499 7.85 7.7499L6.35 6.2499ZM4.85 5.7499L6 4.5999L7.15 5.7499C7.25 5.8499 7.35 5.8999 7.5 5.8999C7.65 5.8999 7.75 5.8499 7.85 5.7499C8.05 5.5499 8.05 5.2499 7.85 5.0499L6.35 3.5499C6.15 3.3499 5.85 3.3499 5.65 3.5499L4.15 5.0499C3.95 5.2499 3.95 5.5499 4.15 5.7499C4.35 5.8999 4.65 5.8999 4.85 5.7499Z" fill="#F8F8F8" fill-opacity="0.972549"/>
</svg>
