<svg width="12" height="12" viewBox="0 0 12 12" fill="none" xmlns="http://www.w3.org/2000/svg">
<path d="M5.65 5.7501C5.75 5.8501 5.85 5.9001 6 5.9001C6.15 5.9001 6.25 5.8501 6.35 5.7501L7.85 4.2501C8.05 4.0501 8.05 3.7501 7.85 3.5501C7.65 3.3501 7.35 3.3501 7.15 3.5501L6 4.6501L4.85 3.5001C4.65 3.3001 4.35 3.3001 4.15 3.5001C3.95 3.7001 3.95 4.0001 4.15 4.2001L5.65 5.7501ZM7.15 6.2501L6 7.4001L4.85 6.2501C4.65 6.0501 4.35 6.0501 4.15 6.2501C3.95 6.4501 3.95 6.7501 4.15 6.9501L5.65 8.4501C5.75 8.5501 5.85 8.6001 6 8.6001C6.15 8.6001 6.25 8.5501 6.35 8.4501L7.85 6.9501C8.05 6.7501 8.05 6.4501 7.85 6.2501C7.65 6.1001 7.35 6.1001 7.15 6.2501Z" fill="#F8F8F8" fill-opacity="0.972549"/>
</svg>
