<svg width="25" height="24" viewBox="0 0 25 24" fill="none" xmlns="http://www.w3.org/2000/svg">
<path d="M12.04 15.29C11.997 15.3375 11.9569 15.3876 11.92 15.44C11.8822 15.4957 11.8519 15.5563 11.83 15.62C11.8012 15.6767 11.781 15.7374 11.77 15.8C11.7651 15.8666 11.7651 15.9334 11.77 16C11.7666 16.1312 11.794 16.2613 11.85 16.38C11.8949 16.5041 11.9666 16.6168 12.0599 16.7101C12.1532 16.8034 12.2659 16.8751 12.39 16.92C12.5097 16.9729 12.6391 17.0002 12.77 17.0002C12.9009 17.0002 13.0303 16.9729 13.15 16.92C13.2741 16.8751 13.3868 16.8034 13.4801 16.7101C13.5734 16.6168 13.6451 16.5041 13.69 16.38C13.7344 16.2584 13.7548 16.1294 13.75 16C13.7508 15.8684 13.7255 15.7379 13.6758 15.6161C13.626 15.4943 13.5527 15.3834 13.46 15.29C13.367 15.1963 13.2564 15.1219 13.1346 15.0711C13.0127 15.0203 12.882 14.9942 12.75 14.9942C12.618 14.9942 12.4873 15.0203 12.3654 15.0711C12.2436 15.1219 12.133 15.1963 12.04 15.29ZM12.75 2C10.7722 2 8.83879 2.58649 7.1943 3.6853C5.54981 4.78412 4.26809 6.3459 3.51121 8.17317C2.75433 10.0004 2.5563 12.0111 2.94215 13.9509C3.328 15.8907 4.28041 17.6725 5.67894 19.0711C7.07746 20.4696 8.85929 21.422 10.7991 21.8079C12.7389 22.1937 14.7496 21.9957 16.5768 21.2388C18.4041 20.4819 19.9659 19.2002 21.0647 17.5557C22.1635 15.9112 22.75 13.9778 22.75 12C22.75 10.6868 22.4913 9.38642 21.9888 8.17317C21.4863 6.95991 20.7497 5.85752 19.8211 4.92893C18.8925 4.00035 17.7901 3.26375 16.5768 2.7612C15.3636 2.25866 14.0632 2 12.75 2ZM12.75 20C11.1678 20 9.62104 19.5308 8.30544 18.6518C6.98985 17.7727 5.96447 16.5233 5.35897 15.0615C4.75347 13.5997 4.59504 11.9911 4.90372 10.4393C5.2124 8.88743 5.97433 7.46197 7.09315 6.34315C8.21197 5.22433 9.63743 4.4624 11.1893 4.15372C12.7411 3.84504 14.3497 4.00346 15.8115 4.60896C17.2733 5.21447 18.5227 6.23984 19.4018 7.55544C20.2808 8.87103 20.75 10.4177 20.75 12C20.75 14.1217 19.9072 16.1566 18.4069 17.6569C16.9066 19.1571 14.8717 20 12.75 20ZM12.75 7C12.2231 6.99966 11.7053 7.13812 11.2489 7.40144C10.7925 7.66476 10.4135 8.04366 10.15 8.5C10.0777 8.61382 10.0291 8.7411 10.0072 8.87418C9.98529 9.00726 9.99055 9.14339 10.0226 9.27439C10.0547 9.40538 10.113 9.52854 10.1939 9.63643C10.2748 9.74433 10.3767 9.83475 10.4935 9.90224C10.6102 9.96974 10.7395 10.0129 10.8733 10.0292C11.0072 10.0454 11.143 10.0345 11.2725 9.99688C11.4021 9.9593 11.5227 9.89591 11.6271 9.81052C11.7314 9.72513 11.8175 9.6195 11.88 9.5C11.9681 9.3474 12.095 9.22078 12.2478 9.13298C12.4005 9.04518 12.5738 8.9993 12.75 9C13.0152 9 13.2696 9.10536 13.4571 9.29289C13.6446 9.48043 13.75 9.73478 13.75 10C13.75 10.2652 13.6446 10.5196 13.4571 10.7071C13.2696 10.8946 13.0152 11 12.75 11C12.4848 11 12.2304 11.1054 12.0429 11.2929C11.8554 11.4804 11.75 11.7348 11.75 12V13C11.75 13.2652 11.8554 13.5196 12.0429 13.7071C12.2304 13.8946 12.4848 14 12.75 14C13.0152 14 13.2696 13.8946 13.4571 13.7071C13.6446 13.5196 13.75 13.2652 13.75 13V12.82C14.4114 12.58 14.9674 12.1152 15.3208 11.5069C15.6742 10.8985 15.8025 10.1853 15.6834 9.49189C15.5643 8.79849 15.2052 8.16902 14.669 7.71352C14.1328 7.25801 13.4535 7.00546 12.75 7Z" fill="#B7BFFF"/>
</svg>
